<svg id="svg" version="1.1" xmlns="http://www.w3.org/2000/svg" xmlns:xlink="http://www.w3.org/1999/xlink" width="400" height="400" viewBox="0, 0, 400,400"><g id="svgg"><path id="path0" d="M195.833 14.940 C 179.536 15.285,162.542 17.960,147.083 22.614 C 82.504 42.054,33.000 95.484,19.019 160.833 C 17.395 168.424,16.231 176.099,15.592 183.417 C 14.998 190.224,14.931 191.806,14.943 198.917 C 14.992 228.488,20.912 254.772,33.293 280.384 C 35.858 285.690,41.499 295.999,41.833 295.993 C 41.906 295.991,45.864 288.595,49.900 280.920 C 50.624 279.543,51.839 277.257,52.601 275.840 C 53.363 274.423,53.962 273.239,53.932 273.210 C 53.876 273.153,44.842 272.601,40.750 272.403 C 39.467 272.341,38.328 272.244,38.220 272.187 C 38.089 272.118,39.268 269.543,41.777 264.417 C 43.841 260.200,46.001 255.775,46.577 254.583 C 47.153 253.392,49.481 248.629,51.750 244.000 C 54.019 239.371,56.531 234.233,57.333 232.583 C 58.135 230.933,61.651 223.742,65.146 216.603 C 68.641 209.463,71.500 203.557,71.500 203.478 C 71.500 203.398,70.994 203.330,70.375 203.327 C 67.028 203.307,55.789 203.011,55.718 202.941 C 55.673 202.895,56.204 201.659,56.898 200.194 C 59.408 194.899,63.939 185.462,67.834 177.417 C 68.589 175.858,69.601 173.758,70.085 172.750 C 71.596 169.597,80.224 152.264,82.228 148.356 C 87.652 137.777,86.877 133.029,78.485 125.417 C 58.234 107.048,55.795 90.887,71.130 76.680 C 84.351 64.432,97.185 64.422,112.167 76.649 C 115.029 78.985,117.311 81.125,122.500 86.337 C 131.086 94.961,135.125 97.527,141.142 98.180 C 145.645 98.669,149.221 97.749,160.500 93.200 C 170.479 89.175,181.416 86.789,196.500 85.347 C 200.450 84.969,200.238 84.971,203.833 85.280 C 219.328 86.609,231.022 89.202,242.287 93.807 C 253.444 98.368,257.826 99.150,263.314 97.560 C 268.052 96.187,270.904 94.081,279.417 85.669 C 293.514 71.739,300.531 67.614,310.167 67.595 C 322.783 67.570,337.585 80.154,339.854 92.833 C 341.430 101.641,335.633 113.520,324.965 123.347 C 313.814 133.619,313.118 137.066,319.656 149.667 C 322.369 154.895,330.027 170.343,333.247 177.083 C 333.729 178.092,335.191 181.129,336.497 183.833 C 338.754 188.508,339.853 190.802,343.885 199.250 C 344.847 201.267,345.611 202.941,345.583 202.970 C 345.555 203.000,341.983 203.098,337.645 203.188 C 333.308 203.278,329.737 203.374,329.710 203.401 C 329.660 203.451,331.516 207.305,335.416 215.250 C 336.676 217.817,338.475 221.492,339.414 223.417 C 340.353 225.342,344.403 233.629,348.415 241.833 C 352.427 250.037,357.389 260.186,359.441 264.385 C 361.494 268.585,363.130 272.091,363.077 272.177 C 363.024 272.263,362.554 272.334,362.032 272.336 C 360.539 272.339,347.472 273.139,347.378 273.233 C 347.302 273.309,349.239 277.025,354.339 286.583 C 355.366 288.508,356.766 291.152,357.450 292.458 C 358.900 295.225,358.738 295.130,359.577 293.705 C 390.358 241.400,393.448 175.480,367.641 121.699 C 366.995 120.352,366.163 118.612,365.793 117.833 C 361.656 109.116,353.784 96.502,346.916 87.583 C 310.594 40.415,255.004 13.686,195.833 14.940 M141.750 133.519 C 133.102 133.888,122.821 134.881,115.861 136.018 C 107.660 137.359,105.305 138.701,103.998 142.781 C 102.852 146.360,103.819 149.177,107.543 153.108 C 110.506 156.236,111.099 158.116,111.584 165.917 C 112.528 181.092,116.254 187.787,126.841 193.332 C 129.050 194.489,135.532 197.608,137.278 198.354 C 145.642 201.927,157.051 200.381,169.486 193.988 C 170.899 193.261,172.088 192.699,172.127 192.738 C 172.166 192.777,171.056 195.646,169.661 199.113 C 153.620 238.965,151.211 247.755,152.727 260.917 C 153.686 269.241,154.023 271.593,154.430 272.812 C 156.632 279.408,164.762 282.081,178.583 280.755 C 196.505 279.035,198.390 277.513,198.097 265.000 C 197.846 254.305,197.976 254.484,190.421 254.307 C 186.979 254.226,185.469 254.126,184.683 253.928 C 179.920 252.727,176.787 248.405,174.768 240.250 C 170.796 224.210,175.734 218.947,199.014 214.408 L 201.200 213.982 203.058 214.334 C 226.810 218.836,231.868 224.345,227.492 240.950 C 225.761 247.517,223.125 251.653,219.660 253.235 C 217.778 254.095,217.050 254.199,212.083 254.315 C 204.910 254.483,204.770 254.609,204.498 261.167 C 204.416 263.137,204.305 265.387,204.251 266.167 C 203.747 273.466,206.370 278.030,211.667 279.067 C 223.297 281.345,234.619 281.646,240.189 279.826 C 246.224 277.854,248.002 275.283,249.002 267.083 C 250.462 255.123,250.444 250.795,248.906 243.865 C 247.254 236.420,240.684 218.363,231.188 195.167 C 230.644 193.838,230.218 192.730,230.241 192.705 C 230.265 192.681,231.626 193.331,233.267 194.151 C 246.214 200.617,257.044 201.957,265.628 198.155 C 286.071 189.100,289.917 184.007,290.916 164.667 C 291.226 158.651,292.144 155.960,294.874 153.065 C 298.807 148.894,299.676 146.353,298.424 142.684 C 296.722 137.697,292.837 136.336,275.333 134.594 C 256.201 132.689,245.926 132.884,232.269 135.412 C 211.256 139.302,203.008 140.604,200.417 140.441 C 197.477 140.255,186.463 138.418,168.417 135.104 C 159.359 133.441,152.761 133.049,141.750 133.519 M143.000 137.458 C 143.000 137.527,142.820 137.696,142.601 137.833 C 142.382 137.971,137.489 142.016,131.727 146.823 C 125.964 151.630,120.395 156.274,119.351 157.143 L 117.451 158.723 117.571 157.510 C 117.737 155.822,118.273 152.708,118.533 151.921 C 118.769 151.205,118.506 151.436,129.262 142.509 L 134.572 138.102 136.078 137.877 C 139.027 137.436,143.000 137.196,143.000 137.458 M260.909 137.488 C 261.007 137.647,260.664 137.939,249.833 146.935 C 242.004 153.439,228.823 164.396,223.452 168.866 C 221.271 170.682,219.426 172.167,219.352 172.167 C 219.096 172.167,217.500 168.358,217.500 167.747 C 217.500 167.520,216.598 168.276,244.000 145.524 C 248.904 141.452,253.034 138.020,253.177 137.896 C 253.670 137.471,260.670 137.101,260.909 137.488 M149.917 137.756 C 152.465 137.877,152.761 137.935,152.494 138.257 C 152.383 138.391,149.290 140.994,145.621 144.042 C 141.952 147.090,134.105 153.614,128.184 158.541 C 122.262 163.468,117.360 167.499,117.292 167.499 C 116.994 167.501,117.153 161.538,117.458 161.232 C 117.619 161.071,119.475 159.506,121.583 157.753 C 139.418 142.926,145.284 138.022,145.493 137.765 C 145.699 137.512,145.904 137.481,146.826 137.563 C 147.426 137.617,148.817 137.704,149.917 137.756 M265.961 137.911 C 267.959 138.211,269.816 138.594,269.958 138.736 C 270.097 138.875,270.556 138.479,262.669 145.018 C 258.865 148.170,251.696 154.125,246.735 158.250 C 225.544 175.874,223.176 177.833,223.076 177.833 C 222.710 177.833,220.246 174.170,220.433 173.905 C 220.516 173.788,222.383 172.200,224.583 170.377 C 228.215 167.368,234.851 161.857,251.412 148.094 C 254.617 145.430,258.742 141.996,260.578 140.464 C 262.414 138.932,264.011 137.676,264.126 137.673 C 264.241 137.669,265.067 137.777,265.961 137.911 M249.972 137.980 C 249.924 138.107,245.444 141.852,229.333 155.234 C 227.454 156.795,223.901 159.751,221.437 161.803 C 218.297 164.420,216.919 165.472,216.828 165.324 C 216.614 164.978,216.307 161.998,216.364 160.811 L 216.417 159.705 226.500 151.325 C 232.046 146.716,237.633 142.071,238.917 141.003 C 242.393 138.111,241.780 138.385,245.250 138.173 C 248.306 137.987,249.409 137.911,249.806 137.861 C 249.928 137.846,250.003 137.899,249.972 137.980 M159.730 138.414 C 161.094 138.546,162.252 138.696,162.302 138.747 C 162.419 138.864,163.369 138.055,153.583 146.175 C 144.070 154.069,133.288 163.030,124.669 170.206 C 121.505 172.840,118.846 174.973,118.759 174.945 C 118.287 174.795,117.403 170.019,117.781 169.661 C 117.947 169.504,120.783 167.139,124.083 164.406 C 131.329 158.405,149.611 143.201,153.083 140.287 C 155.983 137.854,155.464 138.000,159.730 138.414 M238.333 138.919 C 238.333 138.966,233.627 142.914,227.875 147.692 C 222.123 152.470,217.248 156.532,217.042 156.718 C 216.501 157.208,216.479 157.070,216.828 155.410 C 217.911 150.258,218.699 148.941,222.667 145.641 C 228.416 140.861,228.644 140.686,229.380 140.487 C 232.028 139.770,238.333 138.666,238.333 138.919 M168.917 139.691 C 171.394 140.165,171.374 140.146,170.305 141.017 C 169.811 141.420,163.934 146.300,157.245 151.861 C 118.748 183.867,121.603 181.532,121.362 181.212 C 120.980 180.703,119.500 177.524,119.501 177.213 C 119.501 177.048,120.005 176.509,120.634 176.000 C 121.789 175.065,135.370 163.785,150.819 150.929 C 155.548 146.994,160.702 142.710,162.273 141.409 L 165.130 139.045 166.107 139.193 C 166.644 139.274,167.908 139.498,168.917 139.691 M129.994 139.406 C 129.380 140.007,119.914 147.803,119.862 147.751 C 119.460 147.349,122.549 143.058,124.091 141.878 C 125.879 140.509,131.102 138.321,129.994 139.406 M273.945 139.849 C 275.524 140.402,277.215 141.280,277.133 141.504 C 277.106 141.579,276.146 142.421,275.000 143.375 C 271.917 145.941,248.946 165.037,241.182 171.488 C 237.477 174.565,232.902 178.371,231.015 179.945 L 227.583 182.807 226.612 181.862 C 226.078 181.342,225.343 180.565,224.979 180.134 L 224.318 179.352 229.784 174.808 C 232.790 172.309,237.688 168.240,240.667 165.765 C 249.202 158.677,264.206 146.197,268.500 142.614 C 270.654 140.817,272.429 139.343,272.445 139.340 C 272.461 139.336,273.136 139.565,273.945 139.849 M175.175 141.387 C 176.639 141.944,178.167 142.753,178.167 142.970 C 178.167 143.038,177.623 143.547,176.958 144.101 C 176.294 144.656,171.025 149.035,165.250 153.833 C 159.475 158.631,151.525 165.238,147.583 168.515 C 143.642 171.792,137.117 177.217,133.083 180.569 C 129.050 183.922,125.673 186.665,125.579 186.666 C 125.390 186.667,123.436 184.428,122.925 183.624 L 122.600 183.113 123.328 182.515 C 123.729 182.186,127.475 179.076,131.654 175.604 C 151.246 159.323,160.931 151.268,166.917 146.276 C 170.492 143.295,173.492 140.853,173.583 140.850 C 173.675 140.847,174.391 141.088,175.175 141.387 M279.710 143.800 C 280.128 144.331,280.752 145.280,281.097 145.908 L 281.724 147.049 281.148 147.566 C 280.830 147.851,274.874 152.817,267.910 158.603 C 260.947 164.389,251.838 171.959,247.667 175.424 C 243.496 178.890,238.522 183.024,236.613 184.613 C 232.578 187.970,233.159 187.750,231.635 186.504 C 229.107 184.436,228.890 184.212,229.167 183.949 C 229.304 183.818,231.892 181.660,234.917 179.154 C 237.942 176.647,243.979 171.636,248.333 168.018 C 252.688 164.400,258.378 159.672,260.978 157.511 C 263.578 155.351,268.603 151.168,272.145 148.216 C 275.686 145.264,278.666 142.845,278.767 142.841 C 278.868 142.837,279.293 143.268,279.710 143.800 M180.734 145.613 C 181.241 146.316,181.865 147.295,182.120 147.788 L 182.583 148.684 181.993 149.217 C 181.668 149.510,179.268 151.519,176.659 153.680 C 174.051 155.842,165.610 162.854,157.902 169.264 C 150.193 175.673,141.054 183.269,137.593 186.143 L 131.299 191.370 129.872 190.393 C 129.087 189.856,128.113 189.116,127.706 188.750 L 126.967 188.083 127.692 187.503 C 128.090 187.185,133.517 182.682,139.750 177.498 C 145.983 172.314,153.333 166.204,156.083 163.921 C 166.647 155.150,176.805 146.701,178.165 145.553 C 179.897 144.091,179.633 144.085,180.734 145.613 M283.227 151.543 C 283.456 152.423,283.693 153.476,283.754 153.885 L 283.865 154.627 281.974 156.219 C 280.379 157.562,275.380 161.720,258.500 175.742 C 257.262 176.770,252.431 180.787,247.763 184.668 L 239.277 191.725 238.597 191.343 C 237.297 190.613,234.667 188.916,234.667 188.809 C 234.667 188.749,235.960 187.625,237.542 186.312 C 242.322 182.340,260.900 166.898,266.500 162.242 C 269.387 159.840,274.150 155.881,277.083 153.444 L 282.417 149.012 282.614 149.478 C 282.722 149.734,282.998 150.663,283.227 151.543 M184.142 152.250 C 185.110 155.097,185.231 155.860,184.779 156.250 C 184.566 156.433,181.997 158.569,179.071 160.997 C 176.144 163.424,169.325 169.090,163.917 173.587 C 158.508 178.084,150.708 184.565,146.583 187.989 C 142.458 191.412,138.954 194.325,138.796 194.462 C 138.455 194.757,137.518 194.462,134.792 193.201 C 132.879 192.317,132.926 192.464,134.218 191.400 C 135.106 190.669,141.155 185.645,159.083 170.750 C 161.192 168.999,166.967 164.202,171.917 160.091 C 176.867 155.979,181.478 152.143,182.165 151.564 C 183.606 150.352,183.483 150.309,184.142 152.250 M284.484 159.482 C 284.809 163.455,284.846 163.267,283.539 164.332 C 282.347 165.304,266.398 178.552,254.358 188.571 C 250.385 191.878,247.035 194.639,246.915 194.708 C 246.658 194.855,244.094 194.026,242.361 193.234 L 241.138 192.675 242.194 191.782 C 243.102 191.014,252.182 183.462,269.667 168.933 C 272.096 166.914,276.325 163.399,279.065 161.121 C 281.805 158.844,284.104 157.041,284.174 157.115 C 284.244 157.189,284.383 158.254,284.484 159.482 M185.491 160.542 C 185.480 163.227,185.185 165.229,184.736 165.655 C 184.561 165.822,180.592 169.132,175.917 173.009 C 164.022 182.875,160.745 185.599,154.083 191.157 L 148.250 196.024 145.833 195.923 C 143.146 195.810,141.083 195.506,141.083 195.224 C 141.083 195.051,144.084 192.533,163.589 176.333 C 167.617 172.987,174.136 167.569,178.076 164.292 C 182.015 161.015,185.297 158.333,185.369 158.333 C 185.441 158.333,185.496 159.327,185.491 160.542 M284.667 166.568 C 284.667 167.472,284.179 170.984,283.865 172.342 L 283.578 173.583 279.664 176.846 C 277.511 178.640,271.448 183.684,266.190 188.054 L 256.629 196.000 255.023 195.999 C 252.748 195.997,249.333 195.602,249.333 195.341 C 249.333 195.273,251.715 193.239,254.625 190.819 C 257.535 188.399,264.604 182.524,270.333 177.764 C 276.063 173.004,281.575 168.412,282.583 167.560 C 284.667 165.799,284.667 165.799,284.667 166.568 M183.678 169.805 C 179.459 180.508,164.957 192.716,153.449 195.251 C 151.651 195.647,151.665 195.619,154.445 193.310 C 155.805 192.182,162.054 186.988,168.333 181.768 C 174.612 176.549,180.683 171.504,181.823 170.559 C 184.147 168.631,184.139 168.634,183.678 169.805 M281.792 178.617 C 278.372 186.508,268.946 194.101,261.118 195.270 C 260.228 195.402,259.431 196.122,268.750 188.383 C 281.859 177.497,282.240 177.184,282.301 177.245 C 282.334 177.278,282.104 177.895,281.792 178.617 M166.763 255.314 C 168.052 256.100,168.134 258.013,166.920 258.968 C 165.049 260.439,162.493 258.276,163.591 256.151 C 164.142 255.086,165.710 254.672,166.763 255.314 M238.849 255.258 C 239.875 255.788,240.322 257.326,239.736 258.308 C 238.627 260.166,235.909 259.625,235.561 257.476 C 235.282 255.757,237.248 254.430,238.849 255.258 M180.705 265.994 C 182.028 267.035,181.468 269.170,179.802 269.441 C 177.778 269.769,176.753 266.880,178.540 265.888 C 179.125 265.563,180.226 265.617,180.705 265.994 M225.012 266.008 C 225.304 266.216,225.560 266.605,225.667 267.002 C 226.328 269.455,222.788 270.472,221.992 268.059 C 221.430 266.357,223.514 264.942,225.012 266.008 M169.072 267.559 C 171.836 269.070,170.233 273.589,167.108 273.094 C 164.036 272.607,163.658 267.890,166.638 267.235 C 166.883 267.182,167.158 267.112,167.250 267.080 C 167.558 266.974,168.412 267.198,169.072 267.559 M237.184 267.432 C 240.143 268.918,238.625 273.636,235.358 273.106 C 232.331 272.615,232.012 267.888,234.961 267.238 C 235.212 267.183,235.492 267.116,235.583 267.089 C 235.850 267.010,236.713 267.196,237.184 267.432 " stroke="none" fill="#fbfbfb" fill-rule="evenodd"></path><path id="path1" d="M186.000 0.164 C 181.857 0.360,176.036 1.028,170.167 1.982 C 169.112 2.153,167.237 2.456,166.000 2.655 C 164.762 2.854,162.775 3.212,161.583 3.450 C 160.392 3.689,159.004 3.941,158.500 4.010 C 157.570 4.138,155.142 4.699,152.417 5.415 C 151.592 5.632,150.392 5.927,149.750 6.070 C 149.108 6.213,147.571 6.638,146.333 7.014 C 145.096 7.390,143.783 7.775,143.417 7.869 C 140.274 8.676,134.186 10.692,132.250 11.567 C 131.975 11.691,131.240 11.913,130.617 12.061 C 129.579 12.306,128.631 12.673,126.203 13.769 C 125.719 13.988,125.284 14.167,125.235 14.167 C 125.087 14.167,119.507 16.495,118.167 17.116 C 117.479 17.434,115.604 18.319,114.000 19.082 C 112.396 19.846,110.821 20.566,110.500 20.684 C 110.179 20.802,109.450 21.182,108.881 21.528 C 108.311 21.873,107.411 22.387,106.881 22.669 C 106.350 22.951,105.729 23.282,105.500 23.404 C 105.271 23.526,104.633 23.849,104.083 24.120 C 103.533 24.392,102.454 24.983,101.684 25.432 C 99.006 26.998,98.412 27.337,97.583 27.771 C 97.125 28.011,96.412 28.449,96.000 28.744 C 95.587 29.039,95.125 29.325,94.973 29.380 C 94.820 29.434,93.874 30.036,92.871 30.717 C 91.868 31.398,90.583 32.203,90.016 32.505 C 89.449 32.807,88.670 33.328,88.284 33.664 C 87.678 34.190,86.801 34.810,85.804 35.417 C 85.187 35.792,83.372 37.081,82.722 37.606 C 82.340 37.914,81.976 38.167,81.913 38.167 C 81.789 38.167,80.526 39.107,80.250 39.404 C 79.996 39.678,78.301 40.919,77.861 41.153 C 77.648 41.267,76.943 41.846,76.295 42.441 C 75.647 43.035,74.734 43.768,74.267 44.070 C 73.799 44.371,72.874 45.107,72.210 45.705 C 71.547 46.303,70.581 47.120,70.063 47.521 C 69.546 47.922,68.626 48.713,68.020 49.278 C 67.413 49.844,66.017 51.108,64.917 52.087 C 63.817 53.066,62.427 54.366,61.828 54.975 C 61.229 55.585,60.292 56.507,59.745 57.024 C 58.505 58.197,58.197 58.505,57.024 59.745 C 56.507 60.292,55.585 61.229,54.975 61.828 C 54.366 62.427,53.066 63.817,52.087 64.917 C 51.108 66.017,49.844 67.413,49.278 68.020 C 48.713 68.626,47.922 69.546,47.521 70.063 C 47.120 70.581,46.303 71.547,45.705 72.210 C 45.107 72.874,44.371 73.799,44.070 74.267 C 43.768 74.734,43.035 75.647,42.441 76.295 C 41.846 76.943,41.267 77.648,41.153 77.861 C 40.919 78.301,39.678 79.996,39.404 80.250 C 39.107 80.526,38.167 81.789,38.167 81.913 C 38.167 81.976,37.914 82.340,37.606 82.722 C 37.081 83.372,35.792 85.187,35.417 85.804 C 34.810 86.801,34.190 87.678,33.664 88.284 C 33.328 88.670,32.807 89.449,32.505 90.016 C 32.203 90.583,31.398 91.868,30.717 92.871 C 30.036 93.874,29.434 94.820,29.380 94.973 C 29.325 95.125,29.039 95.587,28.744 96.000 C 28.449 96.412,28.011 97.125,27.771 97.583 C 27.337 98.412,26.998 99.006,25.432 101.684 C 24.983 102.454,24.392 103.533,24.120 104.083 C 23.849 104.633,23.526 105.271,23.404 105.500 C 23.282 105.729,22.951 106.350,22.669 106.881 C 22.387 107.411,21.873 108.311,21.528 108.881 C 21.182 109.450,20.802 110.179,20.684 110.500 C 20.566 110.821,19.846 112.396,19.082 114.000 C 18.319 115.604,17.434 117.479,17.116 118.167 C 16.495 119.507,14.167 125.087,14.167 125.235 C 14.167 125.284,13.988 125.719,13.769 126.203 C 12.673 128.631,12.306 129.579,12.061 130.617 C 11.913 131.240,11.691 131.975,11.567 132.250 C 10.692 134.186,8.676 140.274,7.869 143.417 C 7.775 143.783,7.390 145.096,7.014 146.333 C 6.638 147.571,6.213 149.108,6.070 149.750 C 5.927 150.392,5.632 151.592,5.415 152.417 C 4.699 155.142,4.138 157.570,4.010 158.500 C 3.941 159.004,3.689 160.392,3.450 161.583 C 3.212 162.775,2.854 164.762,2.656 166.000 C 2.457 167.237,2.118 169.337,1.903 170.667 C 0.214 181.078,0.094 183.007,0.088 199.750 C 0.083 214.691,0.084 214.702,0.760 220.833 C 1.131 224.196,1.754 228.589,2.254 231.370 C 2.390 232.129,2.623 233.537,2.770 234.500 C 2.917 235.463,3.225 237.188,3.455 238.333 C 3.684 239.479,3.934 240.877,4.010 241.439 C 4.087 242.002,4.500 243.802,4.928 245.439 C 5.356 247.077,5.765 248.754,5.837 249.167 C 5.992 250.060,6.268 251.071,7.085 253.750 C 7.421 254.850,7.770 256.050,7.861 256.417 C 7.952 256.783,8.202 257.683,8.416 258.417 C 8.630 259.150,8.899 260.115,9.013 260.561 C 9.127 261.007,9.478 262.057,9.793 262.894 C 10.108 263.731,10.661 265.204,11.021 266.167 C 11.382 267.129,11.820 268.454,11.995 269.111 C 12.169 269.767,12.724 271.267,13.227 272.444 C 13.730 273.621,14.568 275.633,15.088 276.917 C 16.169 279.585,16.335 279.971,17.106 281.609 C 17.414 282.265,17.667 282.858,17.667 282.928 C 17.667 282.997,18.179 284.073,18.805 285.319 C 19.431 286.564,20.160 288.108,20.425 288.750 C 20.859 289.801,21.857 291.657,23.188 293.886 C 23.451 294.328,23.667 294.761,23.667 294.849 C 23.667 295.085,24.500 296.623,26.006 299.167 C 26.738 300.404,27.534 301.792,27.773 302.250 C 28.012 302.708,28.461 303.431,28.771 303.856 C 29.080 304.280,29.333 304.699,29.333 304.786 C 29.333 304.873,29.945 305.838,30.692 306.930 C 31.440 308.023,32.188 309.217,32.354 309.583 C 32.520 309.950,32.956 310.625,33.323 311.083 C 34.170 312.142,35.203 313.628,35.468 314.167 C 35.580 314.396,35.877 314.854,36.128 315.184 C 36.378 315.514,37.120 316.526,37.776 317.434 C 38.431 318.341,39.393 319.608,39.912 320.250 C 40.432 320.892,40.995 321.679,41.163 322.000 C 41.332 322.321,41.938 323.071,42.509 323.667 C 43.080 324.262,43.735 325.050,43.963 325.417 C 44.377 326.081,45.677 327.692,46.183 328.167 C 46.511 328.474,47.873 330.111,48.378 330.803 C 48.821 331.411,54.739 337.860,55.531 338.598 C 55.835 338.881,56.533 339.610,57.083 340.217 C 57.633 340.824,58.177 341.324,58.292 341.327 C 58.406 341.330,58.500 341.408,58.500 341.500 C 58.500 341.591,59.072 342.210,59.771 342.875 C 60.470 343.539,61.576 344.609,62.229 345.252 C 62.882 345.894,64.167 347.092,65.083 347.913 C 66.000 348.733,67.318 349.933,68.012 350.578 C 68.707 351.222,69.869 352.221,70.596 352.796 C 71.322 353.372,72.479 354.328,73.167 354.921 C 73.854 355.514,74.498 355.999,74.597 355.999 C 74.697 356.000,75.372 356.551,76.097 357.223 C 76.823 357.896,77.754 358.656,78.167 358.912 C 78.579 359.169,79.404 359.771,80.000 360.250 C 80.596 360.730,81.758 361.597,82.583 362.176 C 83.408 362.755,84.121 363.274,84.167 363.329 C 84.300 363.490,86.204 364.731,86.730 365.000 C 86.994 365.136,87.519 365.511,87.897 365.835 C 88.945 366.734,89.676 367.248,90.500 367.664 C 90.912 367.872,92.188 368.654,93.333 369.401 C 94.479 370.149,95.567 370.851,95.750 370.961 C 96.711 371.538,97.792 372.169,99.750 373.293 C 100.942 373.977,102.346 374.794,102.870 375.109 C 103.395 375.424,104.708 376.118,105.789 376.651 C 106.870 377.185,108.241 377.918,108.835 378.281 C 109.430 378.643,110.667 379.259,111.583 379.649 C 112.500 380.040,114.037 380.771,115.000 381.275 C 115.962 381.779,117.200 382.364,117.750 382.575 C 118.300 382.786,119.162 383.151,119.667 383.385 C 120.944 383.978,123.751 385.143,124.757 385.497 C 125.219 385.660,125.932 385.944,126.340 386.127 C 128.181 386.954,129.480 387.486,130.250 387.728 C 131.681 388.179,135.323 389.427,137.580 390.240 C 139.713 391.008,141.372 391.510,143.167 391.931 C 143.671 392.049,145.096 392.449,146.333 392.820 C 149.594 393.797,157.104 395.670,158.750 395.916 C 159.117 395.971,160.767 396.269,162.417 396.578 C 164.067 396.887,165.979 397.216,166.667 397.309 C 167.354 397.402,169.117 397.673,170.583 397.911 C 175.293 398.676,178.520 399.076,184.333 399.615 C 188.518 400.003,210.424 400.062,214.583 399.697 C 220.800 399.151,227.086 398.357,231.370 397.576 C 232.129 397.438,233.350 397.256,234.083 397.172 C 234.817 397.087,236.350 396.826,237.492 396.590 C 238.633 396.355,240.058 396.087,240.658 395.994 C 242.625 395.691,249.874 393.905,254.000 392.708 C 255.237 392.349,256.887 391.886,257.667 391.679 C 259.621 391.160,263.626 389.852,264.333 389.502 C 264.654 389.343,265.779 388.940,266.833 388.606 C 270.365 387.487,270.855 387.319,271.721 386.928 C 273.730 386.021,274.985 385.500,275.161 385.500 C 275.264 385.500,275.891 385.246,276.553 384.936 C 277.215 384.626,278.114 384.251,278.550 384.103 C 278.986 383.955,279.732 383.637,280.207 383.396 C 280.683 383.155,281.524 382.788,282.078 382.579 C 282.632 382.371,283.947 381.752,285.001 381.204 C 286.054 380.656,287.592 379.922,288.417 379.573 C 289.242 379.225,290.517 378.587,291.250 378.156 C 291.983 377.726,293.596 376.870,294.833 376.254 C 296.071 375.639,297.121 375.081,297.167 375.014 C 297.212 374.947,297.850 374.567,298.583 374.169 C 299.317 373.771,300.104 373.317,300.333 373.160 C 300.563 373.003,301.462 372.481,302.333 372.000 C 303.204 371.518,303.954 371.078,304.000 371.021 C 304.047 370.963,304.405 370.745,304.797 370.534 C 305.188 370.324,306.147 369.705,306.927 369.160 C 307.706 368.614,308.661 368.010,309.047 367.817 C 309.976 367.353,311.412 366.372,312.072 365.750 C 312.364 365.475,312.947 365.074,313.366 364.858 C 313.786 364.643,314.507 364.193,314.969 363.858 C 318.221 361.504,319.221 360.761,320.250 359.937 C 320.892 359.422,321.484 359.001,321.566 359.001 C 321.775 359.000,323.078 357.929,324.147 356.880 C 324.640 356.396,325.112 356.000,325.195 356.000 C 325.354 356.000,326.199 355.427,326.669 355.000 C 327.917 353.867,328.767 353.141,329.595 352.500 C 330.128 352.087,331.131 351.222,331.824 350.578 C 332.516 349.933,333.832 348.733,334.748 347.911 C 338.091 344.910,341.333 341.757,341.333 341.507 C 341.333 341.411,341.411 341.333,341.507 341.333 C 341.757 341.333,344.910 338.091,347.911 334.748 C 348.733 333.832,349.933 332.516,350.578 331.824 C 351.222 331.131,352.087 330.128,352.500 329.595 C 353.141 328.767,353.867 327.917,355.000 326.669 C 355.427 326.199,356.000 325.354,356.000 325.195 C 356.000 325.112,356.396 324.640,356.880 324.147 C 357.929 323.078,359.000 321.775,359.001 321.566 C 359.001 321.484,359.422 320.892,359.937 320.250 C 360.761 319.221,361.504 318.221,363.858 314.969 C 364.193 314.507,364.643 313.786,364.858 313.366 C 365.074 312.947,365.475 312.364,365.750 312.072 C 366.372 311.412,367.353 309.976,367.817 309.047 C 368.010 308.661,368.614 307.706,369.160 306.927 C 369.705 306.147,370.324 305.188,370.534 304.797 C 370.745 304.405,370.963 304.047,371.021 304.000 C 371.078 303.954,371.518 303.204,372.000 302.333 C 372.481 301.462,373.003 300.563,373.160 300.333 C 373.317 300.104,373.771 299.317,374.169 298.583 C 374.567 297.850,374.947 297.212,375.014 297.167 C 375.081 297.121,375.639 296.071,376.254 294.833 C 376.870 293.596,377.726 291.983,378.156 291.250 C 378.587 290.517,379.225 289.242,379.573 288.417 C 379.922 287.592,380.656 286.054,381.204 285.001 C 381.752 283.947,382.371 282.632,382.579 282.078 C 382.788 281.524,383.155 280.683,383.396 280.207 C 383.637 279.732,383.955 278.986,384.103 278.550 C 384.251 278.114,384.626 277.215,384.936 276.553 C 385.246 275.891,385.500 275.264,385.500 275.161 C 385.500 274.985,386.021 273.730,386.928 271.721 C 387.319 270.855,387.487 270.365,388.606 266.833 C 388.940 265.779,389.343 264.654,389.502 264.333 C 389.852 263.626,391.160 259.621,391.679 257.667 C 391.886 256.887,392.349 255.237,392.708 254.000 C 393.905 249.874,395.691 242.625,395.994 240.658 C 396.087 240.058,396.355 238.633,396.590 237.492 C 396.826 236.350,397.087 234.817,397.172 234.083 C 397.256 233.350,397.438 232.129,397.576 231.370 C 398.357 227.086,399.151 220.800,399.697 214.583 C 400.062 210.424,400.003 188.518,399.615 184.333 C 399.076 178.520,398.676 175.293,397.911 170.583 C 397.673 169.117,397.402 167.354,397.309 166.667 C 397.216 165.979,396.887 164.067,396.578 162.417 C 396.269 160.767,395.971 159.117,395.916 158.750 C 395.671 157.114,393.698 149.214,392.752 146.083 C 392.419 144.983,392.050 143.671,391.931 143.167 C 391.506 141.360,391.006 139.708,390.240 137.580 C 389.427 135.323,388.179 131.681,387.728 130.250 C 387.486 129.480,386.954 128.181,386.127 126.340 C 385.944 125.932,385.661 125.219,385.498 124.757 C 385.114 123.661,384.095 121.201,383.459 119.833 C 383.182 119.237,382.783 118.300,382.573 117.750 C 382.363 117.200,381.779 115.962,381.275 115.000 C 380.771 114.037,380.040 112.500,379.649 111.583 C 379.259 110.667,378.643 109.430,378.281 108.835 C 377.918 108.241,377.185 106.870,376.651 105.789 C 376.118 104.708,375.424 103.395,375.109 102.870 C 374.794 102.346,373.977 100.942,373.293 99.750 C 372.169 97.792,371.538 96.711,370.961 95.750 C 370.851 95.567,370.149 94.479,369.401 93.333 C 368.654 92.188,367.872 90.912,367.664 90.500 C 367.248 89.676,366.734 88.945,365.835 87.897 C 365.511 87.519,365.136 86.994,365.000 86.730 C 364.730 86.202,363.489 84.299,363.329 84.167 C 363.274 84.121,362.697 83.333,362.047 82.417 C 361.397 81.500,360.446 80.227,359.933 79.588 C 359.420 78.949,359.000 78.343,359.000 78.242 C 359.000 78.141,358.325 77.316,357.500 76.407 C 356.675 75.499,356.000 74.680,355.999 74.587 C 355.999 74.493,355.514 73.854,354.921 73.167 C 354.328 72.479,353.372 71.322,352.796 70.596 C 352.221 69.869,351.222 68.707,350.578 68.012 C 349.933 67.318,348.733 66.000,347.913 65.083 C 347.092 64.167,345.894 62.882,345.252 62.229 C 344.609 61.576,343.539 60.470,342.875 59.771 C 342.210 59.072,341.591 58.500,341.500 58.500 C 341.408 58.500,341.330 58.406,341.327 58.292 C 341.324 58.177,340.824 57.633,340.217 57.083 C 339.609 56.533,338.843 55.796,338.515 55.444 C 338.186 55.093,336.529 53.545,334.833 52.004 C 333.137 50.463,331.530 48.969,331.260 48.684 C 330.991 48.400,330.701 48.167,330.616 48.167 C 330.466 48.167,328.664 46.707,328.167 46.181 C 327.683 45.670,326.076 44.374,325.417 43.963 C 325.050 43.735,324.262 43.080,323.667 42.509 C 323.071 41.938,322.321 41.332,322.000 41.163 C 321.679 40.995,320.892 40.432,320.250 39.912 C 319.608 39.393,318.341 38.431,317.434 37.776 C 316.526 37.120,315.514 36.378,315.184 36.128 C 314.854 35.877,314.396 35.580,314.167 35.468 C 313.628 35.203,312.142 34.170,311.083 33.323 C 310.625 32.956,309.950 32.520,309.583 32.354 C 309.217 32.188,308.023 31.440,306.930 30.692 C 305.838 29.945,304.873 29.333,304.786 29.333 C 304.699 29.333,304.280 29.080,303.856 28.771 C 303.431 28.461,302.708 28.012,302.250 27.773 C 301.792 27.534,300.404 26.738,299.167 26.006 C 296.623 24.500,295.085 23.667,294.849 23.667 C 294.761 23.667,294.328 23.451,293.886 23.188 C 291.657 21.857,289.801 20.859,288.750 20.425 C 288.108 20.160,286.564 19.431,285.319 18.805 C 284.073 18.179,282.997 17.667,282.928 17.667 C 282.858 17.667,282.265 17.414,281.609 17.106 C 279.962 16.331,279.576 16.165,276.917 15.090 C 274.577 14.145,273.222 13.576,271.844 12.960 C 270.824 12.505,269.913 12.189,268.833 11.916 C 268.329 11.789,267.129 11.388,266.167 11.025 C 265.204 10.662,263.731 10.108,262.894 9.793 C 262.057 9.478,261.007 9.127,260.561 9.013 C 260.115 8.899,259.150 8.630,258.417 8.416 C 257.683 8.202,256.783 7.952,256.417 7.861 C 256.050 7.770,254.850 7.421,253.750 7.085 C 251.071 6.268,250.060 5.992,249.167 5.837 C 248.754 5.765,247.077 5.356,245.439 4.928 C 243.802 4.500,242.002 4.087,241.439 4.010 C 240.877 3.934,239.479 3.684,238.333 3.455 C 237.188 3.225,235.463 2.917,234.500 2.770 C 233.537 2.623,232.129 2.390,231.370 2.254 C 227.636 1.582,223.641 1.047,217.500 0.394 C 214.749 0.102,191.000 -0.071,186.000 0.164 M210.083 15.179 C 267.983 18.169,321.641 48.918,354.171 97.750 C 358.271 103.905,363.337 112.659,365.793 117.833 C 366.163 118.612,366.995 120.352,367.641 121.699 C 393.448 175.480,390.358 241.400,359.577 293.705 C 358.738 295.130,358.900 295.225,357.450 292.458 C 356.766 291.152,355.366 288.508,354.339 286.583 C 349.239 277.025,347.302 273.309,347.378 273.233 C 347.472 273.139,360.539 272.339,362.032 272.336 C 362.554 272.334,363.024 272.263,363.077 272.177 C 363.130 272.091,361.494 268.585,359.441 264.385 C 357.389 260.186,352.427 250.037,348.415 241.833 C 344.403 233.629,340.353 225.342,339.414 223.417 C 338.475 221.492,336.676 217.817,335.416 215.250 C 331.516 207.305,329.660 203.451,329.710 203.401 C 329.737 203.374,333.308 203.278,337.645 203.188 C 341.983 203.098,345.555 203.000,345.583 202.970 C 345.611 202.941,344.847 201.267,343.885 199.250 C 339.853 190.802,338.754 188.508,336.497 183.833 C 335.191 181.129,333.729 178.092,333.247 177.083 C 330.027 170.343,322.369 154.895,319.656 149.667 C 316.383 143.358,315.635 141.120,315.647 137.667 C 315.663 132.927,317.306 130.402,324.965 123.347 C 326.895 121.569,329.795 118.302,332.446 114.917 C 343.254 101.119,342.641 88.852,330.558 77.167 C 318.001 65.023,305.270 64.341,291.090 75.050 C 288.103 77.306,285.290 79.865,279.417 85.669 C 264.595 100.316,260.437 101.227,242.287 93.807 C 231.022 89.202,219.328 86.609,203.833 85.280 C 200.238 84.971,200.450 84.969,196.500 85.347 C 181.416 86.789,170.479 89.175,160.500 93.200 C 149.221 97.749,145.645 98.669,141.142 98.180 C 135.125 97.527,131.086 94.961,122.500 86.337 C 117.311 81.125,115.029 78.985,112.167 76.649 C 97.185 64.422,84.351 64.432,71.130 76.680 C 55.795 90.887,58.234 107.048,78.485 125.417 C 86.877 133.029,87.652 137.777,82.228 148.356 C 80.224 152.264,71.596 169.597,70.085 172.750 C 69.601 173.758,68.589 175.858,67.834 177.417 C 63.939 185.462,59.408 194.899,56.898 200.194 C 56.204 201.659,55.673 202.895,55.718 202.941 C 55.789 203.011,67.028 203.307,70.375 203.327 C 70.994 203.330,71.500 203.398,71.500 203.478 C 71.500 203.557,68.641 209.463,65.146 216.603 C 61.651 223.742,58.135 230.933,57.333 232.583 C 56.531 234.233,54.019 239.371,51.750 244.000 C 49.481 248.629,47.153 253.392,46.577 254.583 C 46.001 255.775,43.841 260.200,41.777 264.417 C 39.268 269.543,38.089 272.118,38.220 272.187 C 38.328 272.244,39.467 272.341,40.750 272.403 C 44.842 272.601,53.876 273.153,53.932 273.210 C 53.962 273.239,53.363 274.423,52.601 275.840 C 51.839 277.257,50.624 279.543,49.900 280.920 C 45.864 288.595,41.906 295.991,41.833 295.993 C 41.499 295.999,35.858 285.690,33.293 280.384 C 20.912 254.772,14.992 228.488,14.943 198.917 C 14.931 191.806,14.998 190.224,15.592 183.417 C 18.435 150.848,30.125 119.400,49.388 92.500 C 73.345 59.047,107.704 34.468,147.083 22.614 C 151.057 21.417,156.272 20.058,160.000 19.246 C 176.622 15.628,193.008 14.297,210.083 15.179 M155.583 133.501 C 160.147 133.740,162.775 134.068,168.417 135.104 C 186.463 138.418,197.477 140.255,200.417 140.441 C 203.008 140.604,211.256 139.302,232.269 135.412 C 245.926 132.884,256.201 132.689,275.333 134.594 C 292.837 136.336,296.722 137.697,298.424 142.684 C 299.676 146.353,298.807 148.894,294.874 153.065 C 292.144 155.960,291.226 158.651,290.916 164.667 C 289.917 184.007,286.071 189.100,265.628 198.155 C 257.044 201.957,246.214 200.617,233.267 194.151 C 231.626 193.331,230.265 192.681,230.241 192.705 C 230.218 192.730,230.644 193.838,231.188 195.167 C 240.684 218.363,247.254 236.420,248.906 243.865 C 250.444 250.795,250.462 255.123,249.002 267.083 C 248.002 275.283,246.224 277.854,240.189 279.826 C 234.619 281.646,223.297 281.345,211.667 279.067 C 206.370 278.030,203.747 273.466,204.251 266.167 C 204.305 265.387,204.416 263.137,204.498 261.167 C 204.770 254.609,204.910 254.483,212.083 254.315 C 217.050 254.199,217.778 254.095,219.660 253.235 C 223.125 251.653,225.761 247.517,227.492 240.950 C 231.868 224.345,226.810 218.836,203.058 214.334 L 201.200 213.982 199.014 214.408 C 175.734 218.947,170.796 224.210,174.768 240.250 C 176.787 248.405,179.920 252.727,184.683 253.928 C 185.469 254.126,186.979 254.226,190.421 254.307 C 197.976 254.484,197.846 254.305,198.097 265.000 C 198.390 277.513,196.505 279.035,178.583 280.755 C 164.762 282.081,156.632 279.408,154.430 272.812 C 154.023 271.593,153.686 269.241,152.727 260.917 C 151.211 247.755,153.620 238.965,169.661 199.113 C 171.056 195.646,172.166 192.777,172.127 192.738 C 172.088 192.699,170.899 193.261,169.486 193.988 C 157.051 200.381,145.642 201.927,137.278 198.354 C 135.532 197.608,129.050 194.489,126.841 193.332 C 116.254 187.787,112.528 181.092,111.584 165.917 C 111.099 158.116,110.506 156.236,107.543 153.108 C 103.819 149.177,102.852 146.360,103.998 142.781 C 105.305 138.701,107.660 137.359,115.861 136.018 C 127.844 134.060,145.225 132.958,155.583 133.501 M139.083 137.516 C 138.258 137.591,136.906 137.753,136.078 137.877 L 134.572 138.102 129.262 142.509 C 118.506 151.436,118.769 151.205,118.533 151.921 C 118.273 152.708,117.737 155.822,117.571 157.510 L 117.451 158.723 119.351 157.143 C 120.395 156.274,125.964 151.630,131.727 146.823 C 137.489 142.016,142.382 137.971,142.601 137.833 C 143.445 137.304,142.426 137.212,139.083 137.516 M254.844 137.524 C 254.070 137.605,253.320 137.772,253.177 137.896 C 253.034 138.020,248.904 141.452,244.000 145.524 C 216.598 168.276,217.500 167.520,217.500 167.747 C 217.500 168.358,219.096 172.167,219.352 172.167 C 219.426 172.167,221.271 170.682,223.452 168.866 C 228.823 164.396,242.004 153.439,249.833 146.935 C 260.664 137.939,261.007 137.647,260.909 137.488 C 260.792 137.299,256.771 137.323,254.844 137.524 M145.493 137.765 C 145.284 138.022,139.418 142.926,121.583 157.753 C 119.475 159.506,117.619 161.071,117.458 161.232 C 117.153 161.538,116.994 167.501,117.292 167.499 C 117.360 167.499,122.262 163.468,128.184 158.541 C 134.105 153.614,141.952 147.090,145.621 144.042 C 149.290 140.994,152.383 138.391,152.494 138.257 C 152.761 137.935,152.465 137.877,149.917 137.756 C 148.817 137.704,147.426 137.617,146.826 137.563 C 145.904 137.481,145.699 137.512,145.493 137.765 M260.578 140.464 C 258.742 141.996,254.617 145.430,251.412 148.094 C 234.851 161.857,228.215 167.368,224.583 170.377 C 222.383 172.200,220.516 173.788,220.433 173.905 C 220.246 174.170,222.710 177.833,223.076 177.833 C 223.176 177.833,225.544 175.874,246.735 158.250 C 251.696 154.125,258.865 148.170,262.669 145.018 C 270.556 138.479,270.097 138.875,269.958 138.736 C 269.764 138.542,264.878 137.651,264.126 137.673 C 264.011 137.676,262.414 138.932,260.578 140.464 M248.917 137.940 C 248.550 137.968,246.900 138.073,245.250 138.173 C 241.780 138.385,242.393 138.111,238.917 141.003 C 237.633 142.071,232.046 146.716,226.500 151.325 L 216.417 159.705 216.364 160.811 C 216.307 161.998,216.614 164.978,216.828 165.324 C 216.919 165.472,218.297 164.420,221.437 161.803 C 223.901 159.751,227.454 156.795,229.333 155.234 C 250.846 137.365,250.341 137.794,249.806 137.861 C 249.683 137.877,249.283 137.912,248.917 137.940 M153.083 140.287 C 149.611 143.201,131.329 158.405,124.083 164.406 C 120.783 167.139,117.947 169.504,117.781 169.661 C 117.403 170.019,118.287 174.795,118.759 174.945 C 118.846 174.973,121.505 172.840,124.669 170.206 C 133.288 163.030,144.070 154.069,153.583 146.175 C 163.369 138.055,162.419 138.864,162.302 138.747 C 162.179 138.624,157.470 138.171,156.417 138.182 C 155.597 138.190,155.542 138.224,153.083 140.287 M235.833 139.173 C 233.884 139.484,230.655 140.142,229.380 140.487 C 228.644 140.686,228.416 140.861,222.667 145.641 C 218.699 148.941,217.911 150.258,216.828 155.410 C 216.479 157.070,216.501 157.208,217.042 156.718 C 217.248 156.532,222.123 152.470,227.875 147.692 C 233.627 142.914,238.333 138.966,238.333 138.919 C 238.333 138.795,237.970 138.832,235.833 139.173 M162.273 141.409 C 160.702 142.710,155.548 146.994,150.819 150.929 C 135.370 163.785,121.789 175.065,120.634 176.000 C 120.005 176.509,119.501 177.048,119.501 177.213 C 119.500 177.524,120.980 180.703,121.362 181.212 C 121.603 181.532,118.748 183.867,157.245 151.861 C 163.934 146.300,169.811 141.420,170.305 141.017 C 170.951 140.491,171.140 140.250,170.977 140.163 C 170.739 140.036,167.779 139.446,166.107 139.193 L 165.130 139.045 162.273 141.409 M128.417 139.654 C 125.480 140.673,123.533 141.977,122.047 143.924 C 121.222 145.004,119.730 147.619,119.862 147.751 C 119.914 147.803,129.380 140.007,129.994 139.406 C 130.358 139.049,129.998 139.106,128.417 139.654 M268.500 142.614 C 264.206 146.197,249.202 158.677,240.667 165.765 C 237.688 168.240,232.790 172.309,229.784 174.808 L 224.318 179.352 224.979 180.134 C 225.343 180.565,226.078 181.342,226.612 181.862 L 227.583 182.807 231.015 179.945 C 232.902 178.371,237.477 174.565,241.182 171.488 C 248.946 165.037,271.917 145.941,275.000 143.375 C 276.146 142.421,277.106 141.579,277.133 141.504 C 277.233 141.229,272.913 139.235,272.445 139.340 C 272.429 139.343,270.654 140.817,268.500 142.614 M166.917 146.276 C 160.931 151.268,151.246 159.323,131.654 175.604 C 127.475 179.076,123.729 182.186,123.328 182.515 L 122.600 183.113 122.925 183.624 C 123.436 184.428,125.390 186.667,125.579 186.666 C 125.673 186.665,129.050 183.922,133.083 180.569 C 137.117 177.217,143.642 171.792,147.583 168.515 C 151.525 165.238,159.475 158.631,165.250 153.833 C 171.025 149.035,176.294 144.656,176.958 144.101 C 177.623 143.547,178.167 143.038,178.167 142.970 C 178.167 142.659,174.213 140.829,173.583 140.850 C 173.492 140.853,170.492 143.295,166.917 146.276 M272.145 148.216 C 268.603 151.168,263.578 155.351,260.978 157.511 C 258.378 159.672,252.688 164.400,248.333 168.018 C 243.979 171.636,237.942 176.647,234.917 179.154 C 231.892 181.660,229.304 183.818,229.167 183.949 C 228.890 184.212,229.107 184.436,231.635 186.504 C 233.159 187.750,232.578 187.970,236.613 184.613 C 238.522 183.024,243.496 178.890,247.667 175.424 C 251.838 171.959,260.947 164.389,267.910 158.603 C 274.874 152.817,280.830 147.851,281.148 147.566 L 281.724 147.049 281.097 145.908 C 280.372 144.589,279.036 142.830,278.767 142.841 C 278.666 142.845,275.686 145.264,272.145 148.216 M178.165 145.553 C 176.805 146.701,166.647 155.150,156.083 163.921 C 153.333 166.204,145.983 172.314,139.750 177.498 C 133.517 182.682,128.090 187.185,127.692 187.503 L 126.967 188.083 127.706 188.750 C 128.113 189.116,129.087 189.856,129.872 190.393 L 131.299 191.370 137.593 186.143 C 141.054 183.269,150.193 175.673,157.902 169.264 C 165.610 162.854,174.051 155.842,176.659 153.680 C 179.268 151.519,181.668 149.510,181.993 149.217 L 182.583 148.684 182.120 147.788 C 181.599 146.781,179.873 144.327,179.697 144.345 C 179.635 144.351,178.945 144.895,178.165 145.553 M277.083 153.444 C 274.150 155.881,269.387 159.840,266.500 162.242 C 260.900 166.898,242.322 182.340,237.542 186.312 C 235.960 187.625,234.667 188.749,234.667 188.809 C 234.667 188.916,237.297 190.613,238.597 191.343 L 239.277 191.725 247.763 184.668 C 252.431 180.787,257.262 176.770,258.500 175.742 C 275.380 161.720,280.379 157.562,281.974 156.219 L 283.865 154.627 283.754 153.885 C 283.614 152.949,282.875 150.095,282.614 149.478 L 282.417 149.012 277.083 153.444 M182.165 151.564 C 181.478 152.143,176.867 155.979,171.917 160.091 C 166.967 164.202,161.192 168.999,159.083 170.750 C 141.155 185.645,135.106 190.669,134.218 191.400 C 132.926 192.464,132.879 192.317,134.792 193.201 C 137.518 194.462,138.455 194.757,138.796 194.462 C 138.954 194.325,142.458 191.412,146.583 187.989 C 150.708 184.565,158.508 178.084,163.917 173.587 C 169.325 169.090,176.144 163.424,179.071 160.997 C 181.997 158.569,184.566 156.433,184.779 156.250 C 185.231 155.860,185.110 155.097,184.142 152.250 C 183.483 150.309,183.606 150.352,182.165 151.564 M279.065 161.121 C 276.325 163.399,272.096 166.914,269.667 168.933 C 252.182 183.462,243.102 191.014,242.194 191.782 L 241.138 192.675 242.361 193.234 C 244.094 194.026,246.658 194.855,246.915 194.708 C 247.035 194.639,250.385 191.878,254.358 188.571 C 266.398 178.552,282.347 165.304,283.539 164.332 C 284.658 163.420,284.662 163.414,284.664 162.566 C 284.668 161.206,284.313 157.263,284.174 157.115 C 284.104 157.041,281.805 158.844,279.065 161.121 M178.076 164.292 C 174.136 167.569,167.617 172.987,163.589 176.333 C 144.084 192.533,141.083 195.051,141.083 195.224 C 141.083 195.506,143.146 195.810,145.833 195.923 L 148.250 196.024 154.083 191.157 C 160.745 185.599,164.022 182.875,175.917 173.009 C 180.592 169.132,184.561 165.822,184.736 165.655 C 185.300 165.119,185.886 158.333,185.369 158.333 C 185.297 158.333,182.015 161.015,178.076 164.292 M282.583 167.560 C 281.575 168.412,276.063 173.004,270.333 177.764 C 264.604 182.524,257.535 188.399,254.625 190.819 C 251.715 193.239,249.333 195.273,249.333 195.341 C 249.333 195.602,252.748 195.997,255.023 195.999 L 256.629 196.000 266.190 188.054 C 271.448 183.684,277.511 178.640,279.664 176.846 L 283.578 173.583 283.865 172.342 C 284.402 170.020,284.832 165.993,284.542 166.005 C 284.473 166.008,283.592 166.708,282.583 167.560 M181.823 170.559 C 180.683 171.504,174.612 176.549,168.333 181.768 C 162.054 186.988,155.805 192.182,154.445 193.310 C 151.665 195.619,151.651 195.647,153.449 195.251 C 164.957 192.716,179.459 180.508,183.678 169.805 C 184.139 168.634,184.147 168.631,181.823 170.559 M279.413 179.532 C 258.537 196.842,260.208 195.406,261.118 195.270 C 265.712 194.584,273.221 190.228,276.884 186.122 C 279.181 183.548,282.752 177.697,282.301 177.245 C 282.268 177.213,280.969 178.242,279.413 179.532 M164.383 255.327 C 162.903 256.229,163.020 258.442,164.588 259.204 C 166.514 260.140,168.478 258.160,167.555 256.214 C 167.014 255.073,165.495 254.648,164.383 255.327 M236.558 255.342 C 235.092 256.281,235.248 258.377,236.845 259.217 C 238.266 259.964,240.001 258.868,239.999 257.224 C 239.998 255.481,238.025 254.402,236.558 255.342 M178.540 265.888 C 176.753 266.880,177.778 269.769,179.802 269.441 C 181.468 269.170,182.028 267.035,180.705 265.994 C 180.226 265.617,179.125 265.563,178.540 265.888 M222.636 266.011 C 222.024 266.468,221.752 267.333,221.992 268.059 C 222.788 270.472,226.328 269.455,225.667 267.002 C 225.334 265.764,223.688 265.226,222.636 266.011 M167.250 267.080 C 167.158 267.112,166.883 267.182,166.638 267.235 C 164.376 267.732,163.829 271.197,165.798 272.557 C 168.434 274.378,171.613 271.500,170.113 268.651 C 169.613 267.701,168.007 266.820,167.250 267.080 M235.583 267.089 C 235.492 267.116,235.212 267.183,234.961 267.238 C 232.672 267.742,232.126 271.253,234.130 272.579 C 236.373 274.063,239.161 272.265,238.760 269.593 C 238.549 268.185,236.732 266.752,235.583 267.089 " stroke="none" fill="#892121" fill-rule="evenodd"></path></g></svg>